<?xml version="1.0" standalone="no"?>
<!DOCTYPE svg PUBLIC "-//W3C//DTD SVG 20010904//EN"
 "http://www.w3.org/TR/2001/REC-SVG-20010904/DTD/svg10.dtd">
<svg version="1.0" xmlns="http://www.w3.org/2000/svg"
 width="626.000000pt" height="391.000000pt" viewBox="0 0 626.000000 391.000000"
 preserveAspectRatio="xMidYMid meet">

<g transform="translate(0.000000,391.000000) scale(0.100000,-0.100000)"
fill="#000000" stroke="none">
<path d="M2883 3173 c9 -2 25 -2 35 0 9 3 1 5 -18 5 -19 0 -27 -2 -17 -5z"/>
<path d="M3283 3173 c186 -2 488 -2 670 0 183 1 31 2 -338 2 -368 0 -518 -1
-332 -2z"/>
<path d="M4698 3083 c44 -49 115 -122 156 -163 l76 -74 0 -181 c0 -131 3 -185
13 -194 10 -11 10 -14 0 -18 -30 -11 -5 -46 127 -178 l140 -140 0 -122 c0
-106 2 -123 16 -123 14 0 15 17 12 139 l-3 138 -132 132 -132 132 0 211 0 212
-158 158 c-91 91 -166 158 -176 158 -14 0 3 -24 61 -87z"/>
<path d="M2250 3115 l-44 -45 -346 0 c-275 -1 -349 -3 -363 -14 -15 -12 4 -15
139 -21 87 -4 198 -4 248 0 118 10 113 10 239 1 98 -7 108 -6 114 11 3 10 26
37 50 60 48 46 51 53 25 53 -10 0 -38 -20 -62 -45z"/>
<path d="M2315 3070 l-70 -70 -475 -1 -475 0 -108 -107 -107 -107 1 -105 c0
-72 3 -99 10 -85 6 13 7 0 3 -40 -11 -129 -1 -653 14 -702 8 -26 8 -31 -4 -26
-12 4 -14 -25 -14 -181 0 -102 3 -186 6 -186 3 0 19 14 35 31 l29 31 0 -78 c0
-59 4 -82 18 -98 17 -21 17 -21 -5 -2 -13 11 -23 29 -24 40 -1 18 -2 17 -13
-7 -7 -15 -15 -24 -19 -21 -13 13 -7 -7 10 -34 37 -59 269 -302 289 -302 6 0
58 -51 117 -114 l106 -113 173 -7 c414 -15 778 -19 778 -7 0 6 7 11 16 11 8 0
12 -4 9 -10 -4 -6 27 -10 84 -10 56 0 91 4 91 10 0 7 6 7 18 1 12 -6 160 -8
401 -4 l383 6 115 111 116 111 146 3 c80 2 151 8 157 13 15 12 422 11 426 -2
3 -8 199 -14 368 -10 l75 2 93 92 93 92 -3 311 c-2 258 -5 311 -17 306 -11 -4
-11 -1 -2 16 6 11 13 80 16 153 l6 133 -138 138 -137 137 -7 68 c-5 37 -8 133
-8 213 l-1 145 -105 105 c-58 58 -105 108 -105 113 0 5 -22 31 -50 58 l-50 49
-689 0 c-449 0 -692 -3 -696 -10 -8 -12 -331 -14 -339 -2 -3 5 -110 10 -238
11 l-233 2 -70 -71z m2320 -80 c38 -38 67 -70 64 -70 -2 0 -36 32 -74 70 -38
39 -67 70 -64 70 2 0 36 -31 74 -70z m472 -1182 c-2 -29 -3 -6 -3 52 0 58 1
81 3 53 2 -29 2 -77 0 -105z m-3950 -75 c-2 -21 -4 -6 -4 32 0 39 2 55 4 38 2
-18 2 -50 0 -70z m228 -593 c38 -38 67 -70 64 -70 -2 0 -36 32 -74 70 -38 39
-67 70 -64 70 2 0 36 -31 74 -70z"/>
<path d="M1269 3030 c-9 -5 -24 -22 -34 -37 -17 -27 -17 -27 16 4 30 28 42 32
99 36 l65 3 -65 2 c-36 1 -72 -3 -81 -8z"/>
<path d="M1125 2886 c-44 -41 -78 -76 -75 -79 3 -3 41 31 85 74 44 43 78 79
75 79 -3 0 -41 -33 -85 -74z"/>
<path d="M1042 2673 c-1 -67 -5 -130 -8 -140 -5 -17 -5 -17 6 -1 7 11 9 62 7
140 l-3 123 -2 -122z"/>
<path d="M1011 2399 c-10 -87 -11 -120 -2 -136 6 -13 11 -72 11 -147 0 -69 3
-126 8 -126 4 0 7 30 7 68 0 37 4 140 9 230 6 114 6 162 -2 162 -6 0 -12 15
-14 33 -2 17 -9 -20 -17 -84z"/>
<path d="M5217 1863 c-4 -3 -6 -108 -5 -232 l1 -226 8 230 c4 126 6 231 5 232
-2 2 -6 0 -9 -4z"/>
<path d="M1042 1620 c0 -14 2 -19 5 -12 2 6 2 18 0 25 -3 6 -5 1 -5 -13z"/>
<path d="M4463 1013 c9 -2 25 -2 35 0 9 3 1 5 -18 5 -19 0 -27 -2 -17 -5z"/>
<path d="M3969 962 l-125 -3 -49 -49 c-27 -28 -45 -50 -39 -50 5 0 28 18 49
40 28 29 47 40 69 40 l30 0 -34 -35 c-19 -19 -29 -35 -24 -35 6 0 25 16 44 35
24 25 43 35 64 35 l30 0 -29 -30 c-16 -16 -26 -32 -24 -35 3 -2 21 11 39 30
24 25 43 35 64 35 l30 0 -29 -30 c-16 -16 -24 -30 -19 -30 6 0 23 14 39 30 19
20 38 30 59 30 l30 0 -29 -30 c-16 -16 -24 -30 -19 -30 6 0 23 14 39 30 19 20
38 30 58 30 29 0 30 0 12 -20 -27 -30 -12 -34 15 -5 15 16 34 25 53 25 29 0
30 0 12 -20 -10 -11 -14 -20 -8 -20 5 0 18 9 28 20 10 12 31 20 48 20 29 0 30
0 12 -20 -10 -11 -14 -20 -8 -20 5 0 18 9 27 19 21 23 63 31 236 40 104 6 58
8 -195 7 -181 -1 -387 -2 -456 -4z"/>
<path d="M4908 963 c12 -2 32 -2 45 0 12 2 2 4 -23 4 -25 0 -35 -2 -22 -4z"/>
<path d="M3620 751 c0 -5 -14 -12 -31 -16 -37 -8 -28 -20 24 -29 29 -5 37 -4
37 8 0 8 -5 18 -10 21 -6 4 -8 11 -5 16 4 5 1 9 -4 9 -6 0 -11 -4 -11 -9z"/>
<path d="M1653 733 c15 -2 37 -2 50 0 12 2 0 4 -28 4 -27 0 -38 -2 -22 -4z"/>
<path d="M2038 733 c12 -2 32 -2 45 0 12 2 2 4 -23 4 -25 0 -35 -2 -22 -4z"/>
<path d="M2397 733 c79 -2 207 -2 286 0 78 1 14 3 -143 3 -157 0 -221 -2 -143
-3z"/>
<path d="M3180 721 c-14 -4 -26 -15 -28 -25 -3 -15 0 -18 19 -13 13 4 36 7 50
7 18 0 28 6 32 20 4 16 0 20 -21 19 -15 -1 -38 -4 -52 -8z"/>
</g>
</svg>
